<svg width="326.51005859375px" height="124.42252197265624px" xmlns="http://www.w3.org/2000/svg" viewBox="86.744970703125 12.78873901367188 326.51005859375 124.42252197265624" style="background: none;" preserveAspectRatio="xMidYMid"><defs><linearGradient id="editing-gradient-gradient" x1="0" x2="1" y1="0.5" y2="0.5" gradientUnits="objectBoundingBox"><stop offset="0" stop-color="#93dbe9"></stop><stop offset="1" stop-color="#eb3ad0"></stop></linearGradient></defs><g><g transform="translate(137.03000116348267, 96.59505271911621)"><path d="M4.19-2.81L4.19-2.81L4.19-39.29L4.19-39.29Q4.19-40.43 5.01-41.22L5.01-41.22L5.01-41.22Q5.83-42.01 6.97-42.01L6.97-42.01L40.75-42.01L40.75-42.01Q41.89-42.01 42.70-41.19L42.70-41.19L42.70-41.19Q43.51-40.37 43.51-39.23L43.51-39.23L43.51-36.47L43.51-36.47Q43.51-35.33 42.70-34.53L42.70-34.53L42.70-34.53Q41.89-33.72 40.75-33.72L40.75-33.72L15.23-33.72L15.23-25.20L37.21-25.20L37.21-25.20Q38.35-25.20 39.16-24.39L39.16-24.39L39.16-24.39Q39.96-23.58 39.96-22.44L39.96-22.44L39.96-19.69L39.96-19.69Q39.96-18.54 39.16-17.74L39.16-17.74L39.16-17.74Q38.35-16.93 37.21-16.93L37.21-16.93L15.23-16.93L15.23-8.29L40.69-8.29L40.69-8.29Q41.81-8.29 42.60-7.50L42.60-7.50L42.60-7.50Q43.39-6.71 43.39-5.57L43.39-5.57L43.39-2.75L43.39-2.75Q43.39-1.61 42.57-0.81L42.57-0.81L42.57-0.81Q41.75 0 40.61 0L40.61 0L6.97 0L6.97 0Q5.83 0 5.01-0.81L5.01-0.81L5.01-0.81Q4.19-1.61 4.19-2.81ZM46.20-26.81L46.20-26.81L46.20-30.29L46.20-30.29Q46.20-31.08 46.71-31.60L46.71-31.60L46.71-31.60Q47.23-32.11 48.02-32.11L48.02-32.11L74.71-32.11L74.71-32.11Q75.50-32.11 76.00-31.60L76.00-31.60L76.00-31.60Q76.49-31.08 76.49-30.29L76.49-30.29L76.49-27.48L76.49-27.48Q76.49-25.31 74.41-23.23L74.41-23.23L58.45-7.09L74.94-7.09L74.94-7.09Q75.73-7.09 76.25-6.58L76.25-6.58L76.25-6.58Q76.76-6.06 76.76-5.27L76.76-5.27L76.76-1.79L76.76-1.79Q76.76-1.03 76.25-0.51L76.25-0.51L76.25-0.51Q75.73 0 74.94 0L74.94 0L48.02 0L48.02 0Q47.23 0 46.71-0.51L46.71-0.51L46.71-0.51Q46.20-1.03 46.20-1.79L46.20-1.79L46.20-4.63L46.20-4.63Q46.20-6.77 48.31-8.88L48.31-8.88L63.72-25.02L48.02-25.02L48.02-25.02Q47.23-25.02 46.71-25.53L46.71-25.53L46.71-25.53Q46.20-26.04 46.20-26.81ZM84.55-3.69L84.55-3.69L84.55-3.69Q80.04-7.97 80.04-16.01L80.04-16.01L80.04-16.01Q80.04-24.05 84.58-28.37L84.58-28.37L84.58-28.37Q89.12-32.70 97.18-32.70L97.18-32.70L97.18-32.70Q105.23-32.70 109.75-28.49L109.75-28.49L109.75-28.49Q114.26-24.29 114.26-16.44L114.26-16.44L114.26-14.77L114.26-14.77Q114.26-13.97 113.75-13.46L113.75-13.46L113.75-13.46Q113.23-12.95 112.44-12.95L112.44-12.95L90.38-12.95L90.38-12.95Q90.67-9.35 92.45-7.71L92.45-7.71L92.45-7.71Q94.22-6.06 98.12-6.06L98.12-6.06L98.12-6.06Q102.01-6.06 103.45-7.82L103.45-7.82L103.45-7.82Q104.88-9.58 106.99-9.61L106.99-9.61L111.36-9.61L111.36-9.61Q112.15-9.61 112.66-9.10L112.66-9.10L112.66-9.10Q113.17-8.58 113.17-7.79L113.17-7.79L113.17-7.79Q113.17 0.62 97.15 0.59L97.15 0.59L97.15 0.59Q89.06 0.59 84.55-3.69ZM90.32-19.13L90.32-19.13L103.95-19.13L103.95-19.13Q103.65-26.04 97.16-26.04L97.16-26.04L97.16-26.04Q90.67-26.04 90.32-19.13ZM152.02-1.29L152.02-1.29L152.02-1.29Q152.02 0 150.50 0L150.50 0L144.96 0L144.96 0Q142.15 0 140.48-2.75L140.48-2.75L136.76-8.82L136.76-8.82Q134.36-12.71 129.79-12.71L129.79-12.71L129.79-1.79L129.79-1.79Q129.79-1.00 129.27-0.50L129.27-0.50L129.27-0.50Q128.76 0 128.00 0L128.00 0L121.44 0L121.44 0Q120.64 0 120.15-0.50L120.15-0.50L120.15-0.50Q119.65-1.00 119.65-1.79L119.65-1.79L119.65-40.20L119.65-40.20Q119.65-40.99 120.16-41.50L120.16-41.50L120.16-41.50Q120.67-42.01 121.44-42.01L121.44-42.01L128.00-42.01L128.00-42.01Q128.79-42.01 129.29-41.50L129.29-41.50L129.29-41.50Q129.79-40.99 129.79-40.20L129.79-40.20L129.79-19.39L129.79-19.39Q134.88-19.39 136.76-23.35L136.76-23.35L139.57-29.33L139.57-29.33Q140.16-30.59 141.30-31.35L141.30-31.35L141.30-31.35Q142.44-32.11 143.76-32.11L143.76-32.11L149.30-32.11L149.30-32.11Q150.76-32.11 150.76-30.97L150.76-30.97L150.76-30.97Q150.76-30.32 150.29-29.33L150.29-29.33L146.51-21.36L146.51-21.36Q145.55-19.37 143.88-17.93L143.88-17.93L143.88-17.93Q142.21-16.49 140.27-16.08L140.27-16.08L140.27-16.08Q143.88-15 146.51-10.81L146.51-10.81L151.49-2.75L151.49-2.75Q151.99-1.90 152.02-1.29ZM156.24-38.23L156.24-38.23L156.24-39.23L156.24-39.23Q156.24-40.78 157.13-41.69L157.13-41.69L157.13-41.69Q158.03-42.60 159.61-42.60L159.61-42.60L163.24-42.60L163.24-42.60Q164.79-42.60 165.70-41.70L165.70-41.70L165.70-41.70Q166.61-40.81 166.61-39.23L166.61-39.23L166.61-38.23L166.61-38.23Q166.61-36.68 165.72-35.77L165.72-35.77L165.72-35.77Q164.82-34.86 163.24-34.86L163.24-34.86L159.61-34.86L159.61-34.86Q158.06-34.86 157.15-35.77L157.15-35.77L157.15-35.77Q156.24-36.68 156.24-38.23ZM156.36-1.79L156.36-1.79L156.36-29.59L156.36-29.59Q156.36-30.38 156.87-30.88L156.87-30.88L156.87-30.88Q157.38-31.38 158.14-31.38L158.14-31.38L164.71-31.38L164.71-31.38Q165.50-31.38 166.00-30.86L166.00-30.86L166.00-30.86Q166.49-30.35 166.49-29.59L166.49-29.59L166.49-1.79L166.49-1.79Q166.49-1.00 165.98-0.50L165.98-0.50L165.98-0.50Q165.47 0 164.71 0L164.71 0L158.14 0L158.14 0Q157.35 0 156.86-0.50L156.86-0.50L156.86-0.50Q156.36-1.00 156.36-1.79ZM176.51-3.69L176.51-3.69L176.51-3.69Q172.00-7.97 172.00-16.01L172.00-16.01L172.00-16.01Q172.00-24.05 176.54-28.37L176.54-28.37L176.54-28.37Q181.08-32.70 189.14-32.70L189.14-32.70L189.14-32.70Q197.20-32.70 201.71-28.49L201.71-28.49L201.71-28.49Q206.22-24.29 206.22-16.44L206.22-16.44L206.22-14.77L206.22-14.77Q206.22-13.97 205.71-13.46L205.71-13.46L205.71-13.46Q205.20-12.95 204.40-12.95L204.40-12.95L182.34-12.95L182.34-12.95Q182.64-9.35 184.41-7.71L184.41-7.71L184.41-7.71Q186.18-6.06 190.08-6.06L190.08-6.06L190.08-6.06Q193.97-6.06 195.41-7.82L195.41-7.82L195.41-7.82Q196.85-9.58 198.96-9.61L198.96-9.61L203.32-9.61L203.32-9.61Q204.11-9.61 204.62-9.10L204.62-9.10L204.62-9.10Q205.14-8.58 205.14-7.79L205.14-7.79L205.14-7.79Q205.14 0.62 189.11 0.59L189.11 0.59L189.11 0.59Q181.03 0.59 176.51-3.69ZM182.29-19.13L182.29-19.13L195.91-19.13L195.91-19.13Q195.62-26.04 189.13-26.04L189.13-26.04L189.13-26.04Q182.64-26.04 182.29-19.13ZM211.61-1.79L211.61-1.79L211.61-40.20L211.61-40.20Q211.61-40.99 212.12-41.50L212.12-41.50L212.12-41.50Q212.64-42.01 213.40-42.01L213.40-42.01L219.96-42.01L219.96-42.01Q220.72-42.01 221.24-41.50L221.24-41.50L221.24-41.50Q221.75-40.99 221.75-40.20L221.75-40.20L221.75-1.79L221.75-1.79Q221.75-1.03 221.24-0.51L221.24-0.51L221.24-0.51Q220.72 0 219.96 0L219.96 0L213.40 0L213.40 0Q212.64 0 212.12-0.51L212.12-0.51L212.12-0.51Q211.61-1.03 211.61-1.79Z" fill="url(#editing-gradient-gradient)"></path></g></g><style>text {
  font-size: 64px;
  font-family: Arial Black;
  dominant-baseline: central;
  text-anchor: middle;
}</style></svg>