<svg width="301.9449951171875px" height="173.6375px" xmlns="http://www.w3.org/2000/svg" viewBox="99.02750244140626 -11.818749999999994 301.9449951171875 173.6375" style="background: none;" preserveAspectRatio="xMidYMid"><defs><filter id="editing-extrusion" x="-100%" y="-100%" width="300%" height="300%"><feFlood result="color1" flood-color="#5e6fa3"></feFlood><feConvolveMatrix order="8,8" divisor="1" kernelMatrix="1 0 0 0 0 0 0 0 0 1 0 0 0 0 0 0 0 0 1 0 0 0 0 0 0 0 0 1 0 0 0 0 0 0 0 0 1 0 0 0 0 0 0 0 0 1 0 0 0 0 0 0 0 0 1 0 0 0 0 0 0 0 0 1" in="SourceAlpha" result="extrude"></feConvolveMatrix><feComposite in="color1" in2="extrude" result="comp-extrude" operator="in"></feComposite><feOffset dx="4" dy="4" in="comp-extrude" result="offset-extrude"></feOffset><feMerge><feMergeNode in="offset-extrude"></feMergeNode><feMergeNode in="SourceGraphic"></feMergeNode></feMerge></filter></defs><g filter="url(#editing-extrusion)"><g transform="translate(146.03000259399414, 98.26000022888184)"><path d="M4.16-5.76L4.16-32.83L4.16-32.83Q4.16-35.58 5.76-37.18L5.76-37.18L5.76-37.18Q7.36-38.78 10.11-38.78L10.11-38.78L31.23-38.78L31.23-38.78Q31.68-38.08 32.03-36.93L32.03-36.93L32.03-36.93Q32.38-35.78 32.38-34.50L32.38-34.50L32.38-34.50Q32.38-32.06 31.33-31.04L31.33-31.04L31.33-31.04Q30.27-30.02 28.54-30.02L28.54-30.02L15.04-30.02L15.04-24.06L29.44-24.06L29.44-24.06Q29.89-23.36 30.24-22.24L30.24-22.24L30.24-22.24Q30.59-21.12 30.59-19.84L30.59-19.84L30.59-19.84Q30.59-17.41 29.57-16.38L29.57-16.38L29.57-16.38Q28.54-15.36 26.82-15.36L26.82-15.36L15.04-15.36L15.04-8.64L31.49-8.64L31.49-8.64Q31.94-7.94 32.29-6.78L32.29-6.78L32.29-6.78Q32.64-5.63 32.64-4.35L32.64-4.35L32.64-4.35Q32.64-1.92 31.58-0.86L31.58-0.86L31.58-0.86Q30.53 0.19 28.80 0.19L28.80 0.19L10.11 0.19L10.11 0.19Q7.36 0.19 5.76-1.41L5.76-1.41L5.76-1.41Q4.16-3.01 4.16-5.76L4.16-5.76ZM60.99 0L39.81 0L39.81 0Q38.78-0.90 38.18-2.11L38.18-2.11L38.18-2.11Q37.57-3.33 37.57-4.86L37.57-4.86L37.57-4.86Q37.57-6.14 38.18-7.39L38.18-7.39L38.18-7.39Q38.78-8.64 39.68-9.73L39.68-9.73L50.69-22.66L38.91-22.66L38.91-22.66Q38.53-23.36 38.18-24.45L38.18-24.45L38.18-24.45Q37.82-25.54 37.82-26.82L37.82-26.82L37.82-26.82Q37.82-29.06 38.82-30.05L38.82-30.05L38.82-30.05Q39.81-31.04 41.47-31.04L41.47-31.04L61.63-31.04L61.63-31.04Q62.66-30.14 63.26-28.93L63.26-28.93L63.26-28.93Q63.87-27.71 63.87-26.18L63.87-26.18L63.87-26.18Q63.87-24.90 63.26-23.65L63.26-23.65L63.26-23.65Q62.66-22.40 61.76-21.31L61.76-21.31L51.01-8.38L63.55-8.38L63.55-8.38Q63.94-7.68 64.29-6.59L64.29-6.59L64.29-6.59Q64.64-5.50 64.64-4.22L64.64-4.22L64.64-4.22Q64.64-1.98 63.65-0.99L63.65-0.99L63.65-0.99Q62.66 0 60.99 0L60.99 0ZM85.31 1.02L85.31 1.02L85.31 1.02Q81.54 1.02 78.30-0.03L78.30-0.03L78.30-0.03Q75.07-1.09 72.67-3.20L72.67-3.20L72.67-3.20Q70.27-5.31 68.90-8.51L68.90-8.51L68.90-8.51Q67.52-11.71 67.52-16L67.52-16L67.52-16Q67.52-20.22 68.90-23.26L68.90-23.26L68.90-23.26Q70.27-26.30 72.51-28.26L72.51-28.26L72.51-28.26Q74.75-30.21 77.63-31.14L77.63-31.14L77.63-31.14Q80.51-32.06 83.52-32.06L83.52-32.06L83.52-32.06Q86.91-32.06 89.70-31.04L89.70-31.04L89.70-31.04Q92.48-30.02 94.50-28.22L94.50-28.22L94.50-28.22Q96.51-26.43 97.63-23.94L97.63-23.94L97.63-23.94Q98.75-21.44 98.75-18.50L98.75-18.50L98.75-18.50Q98.75-16.32 97.54-15.17L97.54-15.17L97.54-15.17Q96.32-14.02 94.14-13.70L94.14-13.70L78.34-11.33L78.34-11.33Q79.04-9.22 81.22-8.16L81.22-8.16L81.22-8.16Q83.39-7.10 86.21-7.10L86.21-7.10L86.21-7.10Q88.83-7.10 91.17-7.78L91.17-7.78L91.17-7.78Q93.50-8.45 94.98-9.34L94.98-9.34L94.98-9.34Q96-8.70 96.70-7.55L96.70-7.55L96.70-7.55Q97.41-6.40 97.41-5.12L97.41-5.12L97.41-5.12Q97.41-2.24 94.72-0.83L94.72-0.83L94.72-0.83Q92.67 0.26 90.11 0.64L90.11 0.64L90.11 0.64Q87.55 1.02 85.31 1.02ZM83.52-24.13L83.52-24.13L83.52-24.13Q81.98-24.13 80.86-23.62L80.86-23.62L80.86-23.62Q79.74-23.10 79.04-22.30L79.04-22.30L79.04-22.30Q78.34-21.50 77.98-20.51L77.98-20.51L77.98-20.51Q77.63-19.52 77.57-18.50L77.57-18.50L88.51-20.29L88.51-20.29Q88.32-21.57 87.10-22.85L87.10-22.85L87.10-22.85Q85.89-24.13 83.52-24.13ZM124.16-15.87L134.40-5.63L134.40-5.63Q134.08-2.62 132.64-1.02L132.64-1.02L132.64-1.02Q131.20 0.58 128.45 0.58L128.45 0.58L128.45 0.58Q126.40 0.58 124.80-0.42L124.80-0.42L124.80-0.42Q123.20-1.41 121.34-3.78L121.34-3.78L115.01-11.71L115.01-0.06L115.01-0.06Q114.30 0.06 112.93 0.29L112.93 0.29L112.93 0.29Q111.55 0.51 110.14 0.51L110.14 0.51L110.14 0.51Q108.74 0.51 107.62 0.32L107.62 0.32L107.62 0.32Q106.50 0.13 105.73-0.45L105.73-0.45L105.73-0.45Q104.96-1.02 104.54-2.02L104.54-2.02L104.54-2.02Q104.13-3.01 104.13-4.61L104.13-4.61L104.13-41.66L104.13-41.66Q104.83-41.86 106.21-42.08L106.21-42.08L106.21-42.08Q107.58-42.30 108.99-42.30L108.99-42.30L108.99-42.30Q110.40-42.30 111.52-42.11L111.52-42.11L111.52-42.11Q112.64-41.92 113.41-41.34L113.41-41.34L113.41-41.34Q114.18-40.77 114.59-39.78L114.59-39.78L114.59-39.78Q115.01-38.78 115.01-37.18L115.01-37.18L115.01-20.29L126.02-31.55L126.02-31.55Q129.34-31.55 131.36-30.08L131.36-30.08L131.36-30.08Q133.38-28.61 133.38-26.37L133.38-26.37L133.38-26.37Q133.38-25.41 133.06-24.61L133.06-24.61L133.06-24.61Q132.74-23.81 132.06-22.98L132.06-22.98L132.06-22.98Q131.39-22.14 130.34-21.22L130.34-21.22L130.34-21.22Q129.28-20.29 127.87-19.07L127.87-19.07L124.16-15.87ZM139.26-39.74L139.26-39.74L139.26-39.74Q139.26-42.18 140.90-43.84L140.90-43.84L140.90-43.84Q142.53-45.50 145.22-45.50L145.22-45.50L145.22-45.50Q147.90-45.50 149.54-43.84L149.54-43.84L149.54-43.84Q151.17-42.18 151.17-39.74L151.17-39.74L151.17-39.74Q151.17-37.31 149.54-35.65L149.54-35.65L149.54-35.65Q147.90-33.98 145.22-33.98L145.22-33.98L145.22-33.98Q142.53-33.98 140.90-35.65L140.90-35.65L140.90-35.65Q139.26-37.31 139.26-39.74ZM150.66-26.11L150.66-0.06L150.66-0.06Q149.95 0.06 148.58 0.29L148.58 0.29L148.58 0.29Q147.20 0.51 145.79 0.51L145.79 0.51L145.79 0.51Q144.38 0.51 143.26 0.32L143.26 0.32L143.26 0.32Q142.14 0.13 141.38-0.45L141.38-0.45L141.38-0.45Q140.61-1.02 140.19-2.02L140.19-2.02L140.19-2.02Q139.78-3.01 139.78-4.61L139.78-4.61L139.78-30.66L139.78-30.66Q140.48-30.78 141.86-31.01L141.86-31.01L141.86-31.01Q143.23-31.23 144.64-31.23L144.64-31.23L144.64-31.23Q146.05-31.23 147.17-31.04L147.17-31.04L147.17-31.04Q148.29-30.85 149.06-30.27L149.06-30.27L149.06-30.27Q149.82-29.70 150.24-28.70L150.24-28.70L150.24-28.70Q150.66-27.71 150.66-26.11L150.66-26.11ZM174.02 1.02L174.02 1.02L174.02 1.02Q170.24 1.02 167.01-0.03L167.01-0.03L167.01-0.03Q163.78-1.09 161.38-3.20L161.38-3.20L161.38-3.20Q158.98-5.31 157.60-8.51L157.60-8.51L157.60-8.51Q156.22-11.71 156.22-16L156.22-16L156.22-16Q156.22-20.22 157.60-23.26L157.60-23.26L157.60-23.26Q158.98-26.30 161.22-28.26L161.22-28.26L161.22-28.26Q163.46-30.21 166.34-31.14L166.34-31.14L166.34-31.14Q169.22-32.06 172.22-32.06L172.22-32.06L172.22-32.06Q175.62-32.06 178.40-31.04L178.40-31.04L178.40-31.04Q181.18-30.02 183.20-28.22L183.20-28.22L183.20-28.22Q185.22-26.43 186.34-23.94L186.34-23.94L186.34-23.94Q187.46-21.44 187.46-18.50L187.46-18.50L187.46-18.50Q187.46-16.32 186.24-15.17L186.24-15.17L186.24-15.17Q185.02-14.02 182.85-13.70L182.85-13.70L167.04-11.33L167.04-11.33Q167.74-9.22 169.92-8.16L169.92-8.16L169.92-8.16Q172.10-7.10 174.91-7.10L174.91-7.10L174.91-7.10Q177.54-7.10 179.87-7.78L179.87-7.78L179.87-7.78Q182.21-8.45 183.68-9.34L183.68-9.34L183.68-9.34Q184.70-8.70 185.41-7.55L185.41-7.55L185.41-7.55Q186.11-6.40 186.11-5.12L186.11-5.12L186.11-5.12Q186.11-2.24 183.42-0.83L183.42-0.83L183.42-0.83Q181.38 0.26 178.82 0.64L178.82 0.64L178.82 0.64Q176.26 1.02 174.02 1.02ZM172.22-24.13L172.22-24.13L172.22-24.13Q170.69-24.13 169.57-23.62L169.57-23.62L169.57-23.62Q168.45-23.10 167.74-22.30L167.74-22.30L167.74-22.30Q167.04-21.50 166.69-20.51L166.69-20.51L166.69-20.51Q166.34-19.52 166.27-18.50L166.27-18.50L177.22-20.29L177.22-20.29Q177.02-21.57 175.81-22.85L175.81-22.85L175.81-22.85Q174.59-24.13 172.22-24.13ZM203.78-37.18L203.78-0.06L203.78-0.06Q203.07 0.06 201.70 0.29L201.70 0.29L201.70 0.29Q200.32 0.51 198.91 0.51L198.91 0.51L198.91 0.51Q197.50 0.51 196.38 0.32L196.38 0.32L196.38 0.32Q195.26 0.13 194.50-0.45L194.50-0.45L194.50-0.45Q193.73-1.02 193.31-2.02L193.31-2.02L193.31-2.02Q192.90-3.01 192.90-4.61L192.90-4.61L192.90-41.73L192.90-41.73Q193.60-41.86 194.98-42.08L194.98-42.08L194.98-42.08Q196.35-42.30 197.76-42.30L197.76-42.30L197.76-42.30Q199.17-42.30 200.29-42.11L200.29-42.11L200.29-42.11Q201.41-41.92 202.18-41.34L202.18-41.34L202.18-41.34Q202.94-40.77 203.36-39.78L203.36-39.78L203.36-39.78Q203.78-38.78 203.78-37.18L203.78-37.18Z" fill="#93dbe9"></path></g></g><style>text {
  font-size: 64px;
  font-family: Arial Black;
  dominant-baseline: central;
  text-anchor: middle;
}</style></svg>